<svg width="18" height="20" viewBox="0 0 18 20" fill="none" xmlns="http://www.w3.org/2000/svg">
<path d="M5 8.75C5 8.3358 5.33579 8 5.75 8H8.25V5.74908C8.25 5.33487 8.5858 4.99908 9 4.99908C9.4142 4.99908 9.75 5.33487 9.75 5.74908V8H12.25C12.6642 8 13 8.3358 13 8.75C13 9.1642 12.6642 9.5 12.25 9.5H9.75V11.7491C9.75 12.1633 9.4142 12.4991 9 12.4991C8.5858 12.4991 8.25 12.1633 8.25 11.7491V9.5H5.75C5.33579 9.5 5 9.1642 5 8.75ZM2.84328 2.56789C6.24369 -0.832524 11.7568 -0.832524 15.1573 2.56789C18.5577 5.9683 18.5577 11.4815 15.1573 14.8819L13.9703 16.0558C13.0954 16.9144 11.9603 18.0184 10.5644 19.3679C9.6922 20.2113 8.3084 20.2112 7.4362 19.3677L3.94515 15.9718C3.50638 15.541 3.13912 15.1777 2.84328 14.8819C-0.557134 11.4815 -0.557134 5.9683 2.84328 2.56789ZM14.0966 3.62855C11.282 0.813915 6.71856 0.813915 3.90394 3.62855C1.08931 6.44317 1.08931 11.0066 3.90394 13.8212L5.39101 15.2887C6.20992 16.0901 7.2394 17.0905 8.4791 18.2895C8.7698 18.5706 9.231 18.5707 9.5218 18.2896L12.9167 14.9881C13.3856 14.5278 13.779 14.1388 14.0966 13.8212C16.9112 11.0066 16.9112 6.44317 14.0966 3.62855Z" fill="#212121"/>
</svg>
