<svg width="12" height="17" viewBox="0 0 12 17" fill="none" xmlns="http://www.w3.org/2000/svg">
<path d="M6.00441 8.91044C5.76329 8.91044 5.55816 8.8269 5.38899 8.65981C5.21996 8.49287 5.13545 8.28822 5.13545 8.04585V3.14398L2.14753 6.13544C1.97517 6.3121 1.77253 6.39613 1.53961 6.38752C1.3067 6.37891 1.10392 6.28655 0.931281 6.11044C0.75517 5.93446 0.667114 5.73433 0.667114 5.51002C0.667114 5.28571 0.75517 5.08551 0.931281 4.9094L5.39941 0.441062C5.48441 0.361756 5.57816 0.301409 5.68066 0.26002C5.78302 0.218631 5.89086 0.197937 6.0042 0.197937C6.11753 0.197937 6.22621 0.218631 6.33024 0.26002C6.43441 0.301409 6.52621 0.361756 6.60566 0.441062L11.0738 4.9094C11.2499 5.08551 11.3388 5.28571 11.3404 5.51002C11.3421 5.73433 11.2566 5.93446 11.0838 6.11044C10.9011 6.28655 10.693 6.3746 10.4594 6.3746C10.2258 6.3746 10.0233 6.28655 9.85191 6.11044L6.86461 3.14398V8.04585C6.86461 8.28822 6.78156 8.49287 6.61545 8.65981C6.4492 8.8269 6.24552 8.91044 6.00441 8.91044ZM6.00441 12.9402C5.76329 12.9402 5.55816 12.8568 5.38899 12.6898C5.21996 12.5227 5.13545 12.318 5.13545 12.0756V11.275C5.13545 11.0325 5.2185 10.8278 5.38461 10.6609C5.55086 10.4939 5.75454 10.4104 5.99566 10.4104C6.23677 10.4104 6.44191 10.4939 6.61107 10.6609C6.7801 10.8278 6.86461 11.0325 6.86461 11.275V12.0756C6.86461 12.318 6.78156 12.5227 6.61545 12.6898C6.4492 12.8568 6.24552 12.9402 6.00441 12.9402ZM6.00441 16.1694C5.76329 16.1694 5.55816 16.0863 5.38899 15.9202C5.21996 15.754 5.13545 15.5503 5.13545 15.3092C5.13545 15.0681 5.2185 14.8629 5.38461 14.6938C5.55086 14.5247 5.75454 14.4402 5.99566 14.4402C6.23677 14.4402 6.44191 14.5233 6.61107 14.6894C6.7801 14.8556 6.86461 15.0593 6.86461 15.3004C6.86461 15.5415 6.78156 15.7467 6.61545 15.9159C6.4492 16.0849 6.24552 16.1694 6.00441 16.1694Z" fill="#0077FF"/>
</svg>
