<svg width="12" height="17" viewBox="0 0 12 17" fill="none" xmlns="http://www.w3.org/2000/svg">
<path d="M6.00728 16.076C5.8952 16.076 5.78714 16.0553 5.68312 16.0139C5.57895 15.9727 5.48437 15.9123 5.39937 15.8329L0.931241 11.3854C0.75513 11.2094 0.666241 11.0066 0.664575 10.7768C0.662908 10.5473 0.748464 10.3445 0.921241 10.1685C1.10388 9.9924 1.31201 9.90434 1.54562 9.90434C1.77923 9.90434 1.98173 9.9924 2.15312 10.1685L5.14041 13.1508V8.2283C5.14041 7.9858 5.22346 7.78108 5.38958 7.61414C5.55583 7.44719 5.75951 7.36372 6.00062 7.36372C6.24173 7.36372 6.44687 7.44719 6.61603 7.61414C6.78506 7.78108 6.86958 7.9858 6.86958 8.2283V13.1508L9.85249 10.1579C10.0249 9.98219 10.2294 9.89518 10.4662 9.89684C10.7032 9.89851 10.9057 9.9874 11.0737 10.1635C11.2499 10.3395 11.3379 10.5431 11.3379 10.7743C11.3379 11.0057 11.2499 11.2094 11.0737 11.3854L6.60562 15.8329C6.52145 15.9123 6.42874 15.9727 6.32749 16.0139C6.2261 16.0553 6.11937 16.076 6.00728 16.076ZM6.00937 5.86372C5.76826 5.86372 5.56312 5.78018 5.39395 5.61309C5.22492 5.44615 5.14041 5.2415 5.14041 4.99914V4.1983C5.14041 3.95594 5.22346 3.75129 5.38958 3.58434C5.55583 3.41726 5.75951 3.33372 6.00062 3.33372C6.24173 3.33372 6.44687 3.41726 6.61603 3.58434C6.78506 3.75129 6.86958 3.95594 6.86958 4.1983V4.99914C6.86958 5.2415 6.78652 5.44615 6.62041 5.61309C6.45416 5.78018 6.25048 5.86372 6.00937 5.86372ZM6.00937 1.83372C5.76826 1.83372 5.56312 1.75066 5.39395 1.58455C5.22492 1.41844 5.14041 1.21476 5.14041 0.973511C5.14041 0.7324 5.22346 0.527331 5.38958 0.358303C5.55583 0.189136 5.75951 0.104553 6.00062 0.104553C6.24173 0.104553 6.44687 0.187608 6.61603 0.353719C6.78506 0.519969 6.86958 0.72365 6.86958 0.964761C6.86958 1.20587 6.78652 1.41101 6.62041 1.58018C6.45416 1.74921 6.25048 1.83372 6.00937 1.83372Z" fill="#30EF7D"/>
</svg>
