<svg width="22" height="22" viewBox="0 0 22 22" fill="none" xmlns="http://www.w3.org/2000/svg">
<path d="M3.6665 5.04159C3.6665 3.26967 5.10292 1.83325 6.87484 1.83325C8.64675 1.83325 10.0832 3.26967 10.0832 5.04159C10.0832 6.49868 9.11183 7.7289 7.78136 8.12006C8.41189 10.1852 10.3325 11.6874 12.604 11.6874H12.907C13.2217 10.2459 14.5055 9.16658 16.0415 9.16658C17.8134 9.16658 19.2498 10.603 19.2498 12.3749C19.2498 14.1468 17.8134 15.5833 16.0415 15.5833C14.5055 15.5833 13.2217 14.504 12.907 13.0624H12.604C10.5589 13.0624 8.73735 12.1057 7.56234 10.6154V13.8237C9.00388 14.1385 10.0832 15.4223 10.0832 16.9583C10.0832 18.7302 8.64675 20.1666 6.87484 20.1666C5.10292 20.1666 3.6665 18.7302 3.6665 16.9583C3.6665 15.4223 4.7458 14.1385 6.18734 13.8237V8.17609C4.7458 7.86136 3.6665 6.57752 3.6665 5.04159ZM6.87484 3.20825C5.86231 3.20825 5.0415 4.02906 5.0415 5.04159C5.0415 6.05411 5.86231 6.87492 6.87484 6.87492C7.88736 6.87492 8.70817 6.05411 8.70817 5.04159C8.70817 4.02906 7.88736 3.20825 6.87484 3.20825ZM6.87484 15.1249C5.86231 15.1249 5.0415 15.9457 5.0415 16.9583C5.0415 17.9708 5.86231 18.7916 6.87484 18.7916C7.88736 18.7916 8.70817 17.9708 8.70817 16.9583C8.70817 15.9457 7.88736 15.1249 6.87484 15.1249ZM14.2082 12.3749C14.2082 13.3875 15.029 14.2083 16.0415 14.2083C17.0541 14.2083 17.8748 13.3875 17.8748 12.3749C17.8748 11.3624 17.0541 10.5416 16.0415 10.5416C15.029 10.5416 14.2082 11.3624 14.2082 12.3749Z" fill="#0D0D0D" fill-opacity="0.25"/>
</svg>
