<svg width="26" height="26" viewBox="0 0 26 26" fill="none" xmlns="http://www.w3.org/2000/svg">
<path d="M7.64485 2.61989L8.9091 2.23882C10.3418 1.80696 11.8725 2.50488 12.4861 3.86969L13.463 6.04255C13.9859 7.20587 13.7103 8.57305 12.7775 9.44291L11.1587 10.9525C11.1114 10.9966 11.0814 11.0562 11.0742 11.1205C11.0261 11.5507 11.3179 12.3886 11.9897 13.5524C12.4784 14.3988 12.9206 14.9923 13.2971 15.3262C13.5594 15.5588 13.7038 15.609 13.7652 15.5907L15.9431 14.9249C17.1625 14.5521 18.484 14.9966 19.2301 16.0307L20.6175 17.9536C21.4908 19.1639 21.3337 20.8336 20.2502 21.8599L19.2899 22.7692C18.2538 23.7505 16.7787 24.1161 15.4043 23.7325C12.4207 22.8997 9.74559 20.3819 7.3494 16.2316C4.94987 12.0755 4.10791 8.49565 4.88407 5.49288C5.23926 4.1187 6.2859 3.02952 7.64485 2.61989ZM8.11383 4.17574C7.29846 4.42152 6.67047 5.07503 6.45736 5.89954C5.80449 8.42535 6.55075 11.5983 8.75669 15.4191C10.9597 19.2347 13.331 21.4667 15.8411 22.1673C16.6658 22.3975 17.5508 22.1781 18.1725 21.5893L19.1327 20.68C19.6253 20.2135 19.6967 19.4545 19.2997 18.9044L17.9123 16.9815C17.5731 16.5115 16.9724 16.3094 16.4182 16.4789L14.2349 17.1464C12.9678 17.5241 11.8176 16.5042 10.5825 14.3649C9.75015 12.9233 9.36222 11.8089 9.45925 10.9402C9.50952 10.4901 9.71922 10.0729 10.0504 9.76403L11.6693 8.25446C12.0933 7.85907 12.2185 7.23762 11.9809 6.70885L11.004 4.53598C10.7251 3.91561 10.0293 3.59837 9.37808 3.79467L8.11383 4.17574Z" fill="#0D0D0D"/>
</svg>
