<svg width="18" height="16" viewBox="0 0 18 16" fill="none" xmlns="http://www.w3.org/2000/svg">
<path d="M17.2502 6.5L15.4793 2.36797C15.191 1.69531 14.4565 1.25 13.6357 1.25H4.36477C3.54399 1.25 2.80946 1.69531 2.52118 2.36797L0.750244 6.5M17.2502 6.5H0.750244M17.2502 6.5V13.25M0.750244 6.5V13.25M0.750244 13.25H17.2502M0.750244 13.25V14.75H2.25024V13.25M17.2502 13.25V14.75H15.7502V13.25" stroke="#0D0D0D" stroke-opacity="0.25" stroke-width="1.5" stroke-linecap="round" stroke-linejoin="round"/>
<path d="M14.25 10.2499C13.8358 10.2499 13.5 9.91409 13.5 9.49988C13.5 9.08566 13.8358 8.74988 14.25 8.74988C14.6642 8.74988 15 9.08566 15 9.49988C15 9.91409 14.6642 10.2499 14.25 10.2499Z" stroke="#0D0D0D" stroke-opacity="0.25" stroke-width="1.5" stroke-linecap="round" stroke-linejoin="round"/>
<path d="M3.75024 10.2499C3.33603 10.2499 3.00024 9.91409 3.00024 9.49988C3.00024 9.08566 3.33603 8.74988 3.75024 8.74988C4.16446 8.74988 4.50024 9.08566 4.50024 9.49988C4.50024 9.91409 4.16446 10.2499 3.75024 10.2499Z" stroke="#0D0D0D" stroke-opacity="0.25" stroke-width="1.5" stroke-linecap="round" stroke-linejoin="round"/>
</svg>
