<svg width="18" height="12" viewBox="0 0 18 12" fill="none" xmlns="http://www.w3.org/2000/svg">
<path d="M0.666626 2.45841C0.666626 1.85063 0.908069 1.26773 1.33784 0.837962C1.76761 0.408191 2.3505 0.166748 2.95829 0.166748H15.0416C15.6494 0.166748 16.2323 0.408191 16.6621 0.837962C17.0919 1.26773 17.3333 1.85063 17.3333 2.45841V3.91675H0.666626V2.45841ZM0.666626 5.16675H17.3333V9.54175C17.3333 10.1495 17.0919 10.7324 16.6621 11.1622C16.2323 11.592 15.6494 11.8334 15.0416 11.8334H2.95829C2.3505 11.8334 1.76761 11.592 1.33784 11.1622C0.908069 10.7324 0.666626 10.1495 0.666626 9.54175V5.16675ZM12.125 8.08342C11.9592 8.08342 11.8002 8.14926 11.683 8.26647C11.5658 8.38368 11.5 8.54265 11.5 8.70842C11.5 8.87418 11.5658 9.03315 11.683 9.15036C11.8002 9.26757 11.9592 9.33342 12.125 9.33342H14.2083C14.3741 9.33342 14.533 9.26757 14.6502 9.15036C14.7674 9.03315 14.8333 8.87418 14.8333 8.70842C14.8333 8.54265 14.7674 8.38368 14.6502 8.26647C14.533 8.14926 14.3741 8.08342 14.2083 8.08342H12.125Z" fill="white"/>
</svg>
