<svg width="26" height="26" viewBox="0 0 26 26" fill="none" xmlns="http://www.w3.org/2000/svg">
<path d="M12.9998 2.16675C18.9829 2.16675 23.8332 7.01699 23.8332 13.0001C23.8332 18.9831 18.9829 23.8334 12.9998 23.8334C11.2467 23.8334 9.55247 23.4159 8.03044 22.6287L3.8858 23.785C3.16547 23.9862 2.41847 23.5653 2.21732 22.845C2.15075 22.6066 2.15078 22.3546 2.21737 22.1164L3.374 17.975C2.58507 16.4516 2.1665 14.7554 2.1665 13.0001C2.1665 7.01699 7.01675 2.16675 12.9998 2.16675ZM12.9998 3.79175C7.91422 3.79175 3.7915 7.91446 3.7915 13.0001C3.7915 14.5921 4.19534 16.1238 4.95395 17.4824L5.11716 17.7745L3.91171 22.0908L8.23052 20.8859L8.52252 21.0487C9.8799 21.8055 11.4097 22.2084 12.9998 22.2084C18.0854 22.2084 22.2082 18.0857 22.2082 13.0001C22.2082 7.91446 18.0854 3.79175 12.9998 3.79175ZM9.479 14.0834H14.3522C14.8009 14.0834 15.1647 14.4472 15.1647 14.8959C15.1647 15.3073 14.8589 15.6472 14.4623 15.701L14.3522 15.7084H9.479C9.03028 15.7084 8.6665 15.3446 8.6665 14.8959C8.6665 14.4846 8.97217 14.1446 9.36875 14.0908L9.479 14.0834ZM9.479 10.2917H16.5255C16.9743 10.2917 17.338 10.6555 17.338 11.1042C17.338 11.5156 17.0323 11.8555 16.6358 11.9094L16.5255 11.9167H9.479C9.03028 11.9167 8.6665 11.553 8.6665 11.1042C8.6665 10.6929 8.97217 10.353 9.36875 10.2992L9.479 10.2917Z" fill="#0D0D0D"/>
</svg>
