<svg width="22" height="22" viewBox="0 0 22 22" fill="none" xmlns="http://www.w3.org/2000/svg">
<path d="M11.2949 8.01453C10.6794 7.95374 10.0601 8.08469 9.52188 8.38945C8.98365 8.69421 8.55278 9.15788 8.28825 9.71698C8.02373 10.2761 7.93848 10.9033 8.04418 11.5127C8.14989 12.1221 8.44137 12.684 8.87873 13.1213C9.31609 13.5587 9.87794 13.8502 10.4874 13.9559C11.0968 14.0616 11.724 13.9763 12.2831 13.7118C12.8422 13.4473 13.3058 13.0164 13.6106 12.4782C13.9154 11.94 14.0463 11.3207 13.9855 10.7052C13.9162 10.0151 13.6105 9.37031 13.1201 8.87995C12.6297 8.38958 11.9849 8.08384 11.2949 8.01453ZM18.5183 11C18.5164 11.3261 18.4925 11.6517 18.4466 11.9745L20.5658 13.6367C20.6581 13.7132 20.7203 13.8199 20.7413 13.9379C20.7623 14.056 20.7409 14.1776 20.6807 14.2812L18.6758 17.75C18.615 17.8527 18.5198 17.9305 18.4071 17.9699C18.2944 18.0093 18.1715 18.0076 18.0599 17.9652L15.9552 17.1177C15.8391 17.0714 15.7134 17.0547 15.5893 17.0691C15.4652 17.0834 15.3466 17.1283 15.2441 17.1997C14.9229 17.4209 14.5854 17.6174 14.2344 17.7875C14.1241 17.8411 14.0287 17.9211 13.9566 18.0203C13.8845 18.1196 13.8379 18.2351 13.821 18.3566L13.5055 20.6014C13.4848 20.72 13.4236 20.8276 13.3322 20.906C13.2409 20.9844 13.1252 21.0287 13.0049 21.0312H8.99521C8.87687 21.0292 8.76276 20.9869 8.67167 20.9113C8.58059 20.8357 8.51796 20.7314 8.49412 20.6155L8.17912 18.3739C8.16143 18.2511 8.11366 18.1345 8.04006 18.0346C7.96646 17.9346 7.86931 17.8544 7.75724 17.8011C7.40672 17.6319 7.07033 17.4349 6.75131 17.2119C6.64916 17.1408 6.53094 17.0963 6.4073 17.0823C6.28365 17.0683 6.15847 17.0853 6.04303 17.1317L3.93881 17.9788C3.82729 18.0212 3.70437 18.023 3.5917 17.9837C3.47903 17.9444 3.38383 17.8666 3.32287 17.7641L1.31802 14.2953C1.25775 14.1917 1.23621 14.07 1.25724 13.952C1.27827 13.834 1.34051 13.7272 1.43287 13.6508L3.22396 12.2445C3.32209 12.1666 3.39921 12.0655 3.44832 11.9502C3.49744 11.835 3.51699 11.7093 3.50521 11.5845C3.48834 11.3891 3.47802 11.1941 3.47802 10.9986C3.47802 10.8031 3.48787 10.6109 3.50521 10.4197C3.5157 10.2957 3.49519 10.1711 3.44552 10.057C3.39585 9.94294 3.31858 9.84302 3.22068 9.76625L1.43052 8.36C1.33966 8.28317 1.27874 8.17681 1.25843 8.05957C1.23811 7.94232 1.25971 7.82167 1.31943 7.71875L3.32427 4.25C3.38516 4.14734 3.48033 4.06946 3.59301 4.0301C3.70569 3.99074 3.82865 3.99242 3.94021 4.03484L6.0449 4.88234C6.16096 4.92856 6.28668 4.94525 6.41078 4.93094C6.53489 4.91662 6.6535 4.87174 6.75599 4.80031C7.07721 4.57912 7.41474 4.38262 7.76568 4.2125C7.87601 4.15887 7.97145 4.07891 8.04355 3.97966C8.11566 3.88042 8.16222 3.76494 8.17912 3.64344L8.49459 1.39859C8.51531 1.28004 8.57656 1.17236 8.66787 1.09396C8.75918 1.01555 8.87489 0.971298 8.99521 0.96875H13.0049C13.1232 0.970797 13.2374 1.01309 13.3284 1.08867C13.4195 1.16425 13.4821 1.2686 13.506 1.38453L13.821 3.62609C13.8387 3.74894 13.8865 3.86551 13.9601 3.96544C14.0337 4.06537 14.1308 4.14557 14.2429 4.19891C14.5934 4.3681 14.9298 4.56514 15.2488 4.78813C15.351 4.85919 15.4692 4.90373 15.5928 4.91772C15.7165 4.93172 15.8416 4.91473 15.9571 4.86828L18.0613 4.02125C18.1728 3.97879 18.2957 3.97704 18.4084 4.01631C18.5211 4.05558 18.6163 4.13336 18.6772 4.23594L20.6821 7.70469C20.7424 7.80832 20.7639 7.92999 20.7429 8.04802C20.7218 8.16604 20.6596 8.27278 20.5672 8.34922L18.7762 9.75547C18.6776 9.83311 18.6 9.93416 18.5505 10.0494C18.501 10.1647 18.481 10.2905 18.4926 10.4155C18.508 10.6095 18.5183 10.8045 18.5183 11Z" stroke="#0D0D0D" stroke-opacity="0.25" stroke-width="1.5" stroke-linecap="round" stroke-linejoin="round"/>
</svg>
