<svg width="18" height="18" viewBox="0 0 18 18" fill="none" xmlns="http://www.w3.org/2000/svg">
<path d="M5.26449 3.16675H4.0076C4.11398 1.76832 5.28238 0.666748 6.70807 0.666748H13.3748C15.5609 0.666748 17.3332 2.43896 17.3332 4.62508V11.2917C17.3332 12.7174 16.2316 13.8858 14.8332 13.9922V12.7353C15.5399 12.6342 16.0832 12.0264 16.0832 11.2917V4.62508C16.0832 3.12931 14.8706 1.91675 13.3748 1.91675H6.70807C5.97338 1.91675 5.36558 2.46002 5.26449 3.16675ZM3.37486 4.00008C1.87908 4.00008 0.666504 5.21264 0.666504 6.70841V14.6251C0.666504 16.1208 1.87908 17.3334 3.37486 17.3334H11.2916C12.7874 17.3334 14 16.1208 14 14.6251V6.70841C14 5.21264 12.7874 4.00008 11.2916 4.00008H3.37486ZM1.91651 6.70841C1.91651 5.903 2.56944 5.25008 3.37486 5.25008H11.2916C12.097 5.25008 12.7499 5.903 12.7499 6.70841V14.6251C12.7499 15.4305 12.097 16.0834 11.2916 16.0834H3.37486C2.56944 16.0834 1.91651 15.4305 1.91651 14.6251V6.70841Z" fill="#212121"/>
</svg>
