<svg width="28" height="28" viewBox="0 0 28 28" fill="none" xmlns="http://www.w3.org/2000/svg">
<path d="M6.70833 3.5C4.93642 3.5 3.5 4.93642 3.5 6.70833V21.2917C3.5 23.0636 4.93642 24.5 6.70833 24.5H21.2917C23.0636 24.5 24.5 23.0636 24.5 21.2917V6.70833C24.5 4.93642 23.0636 3.5 21.2917 3.5H6.70833ZM5.25 6.70833C5.25 5.90291 5.90291 5.25 6.70833 5.25H21.2917C22.0971 5.25 22.75 5.90291 22.75 6.70833V21.2917C22.75 22.0971 22.0971 22.75 21.2917 22.75H6.70833C5.90291 22.75 5.25 22.0971 5.25 21.2917V6.70833ZM8.45833 10.5C7.97509 10.5 7.58333 10.8918 7.58333 11.375C7.58333 11.8582 7.97509 12.25 8.45833 12.25H19.5417C20.0249 12.25 20.4167 11.8582 20.4167 11.375C20.4167 10.8918 20.0249 10.5 19.5417 10.5H8.45833ZM8.45833 15.1667C7.97509 15.1667 7.58333 15.5584 7.58333 16.0417C7.58333 16.5249 7.97509 16.9167 8.45833 16.9167H16.0417C16.5249 16.9167 16.9167 16.5249 16.9167 16.0417C16.9167 15.5584 16.5249 15.1667 16.0417 15.1667H8.45833Z" fill="#212121"/>
</svg>
