<svg width="24" height="24" viewBox="0 0 24 24" fill="none" xmlns="http://www.w3.org/2000/svg">
<path d="M12 2.625C17.1776 2.625 21.375 6.82233 21.375 12C21.375 17.1776 17.1776 21.375 12 21.375C6.82233 21.375 2.625 17.1776 2.625 12C2.625 11.5295 2.65965 11.0672 2.72654 10.6154C2.81056 10.0477 2.39511 9.5 1.82135 9.5C1.35779 9.5 0.95125 9.82025 0.880888 10.2785C0.7947 10.8398 0.75 11.4146 0.75 12C0.75 18.2132 5.7868 23.25 12 23.25C18.2132 23.25 23.25 18.2132 23.25 12C23.25 5.7868 18.2132 0.75 12 0.75C9.11868 0.75 6.49034 1.8332 4.5 3.6146V2.3125C4.5 1.79474 4.08026 1.375 3.5625 1.375C3.04474 1.375 2.625 1.79474 2.625 2.3125V6.0625C2.625 6.58026 3.04474 7 3.5625 7H7.3125C7.83026 7 8.25 6.58026 8.25 6.0625C8.25 5.54474 7.83026 5.125 7.3125 5.125H5.62616C7.29884 3.57354 9.53862 2.625 12 2.625ZM12.625 6.6875C12.625 6.16974 12.2052 5.75 11.6875 5.75C11.1698 5.75 10.75 6.16974 10.75 6.6875V12.3125C10.75 12.8302 11.1698 13.25 11.6875 13.25H15.4375C15.9552 13.25 16.375 12.8302 16.375 12.3125C16.375 11.7948 15.9552 11.375 15.4375 11.375H12.625V6.6875Z" fill="#0D0D0D"/>
</svg>
