<svg width="21" height="21" viewBox="0 0 21 21" fill="none" xmlns="http://www.w3.org/2000/svg">
<path d="M9.4948 1.54669C9.9837 1.36976 10.5 1.73196 10.5 2.25194V2.97174L12 2.42895V2.25194C12 0.692018 10.4512 -0.394592 8.9844 0.136198L2.14414 2.61138C0.85728 3.07704 0 4.29894 0 5.66746V11.7491C0 13.3035 1.5378 14.388 3 13.8705V12.2753L2.5052 12.4544C2.01625 12.6313 1.5 12.2691 1.5 11.7491V5.66746C1.5 4.93056 1.96161 4.27262 2.65454 4.02188L9.4948 1.54669ZM13.4948 4.54669C13.9837 4.36976 14.5 4.73197 14.5 5.25194V5.97174L16 5.42895V5.25194C16 3.69202 14.4512 2.60541 12.9844 3.1362L5.81427 5.73075C4.72539 6.12477 4 7.15868 4 8.3167V14.7491C4 16.3035 5.5378 17.388 7 16.8705V15.2753L6.5052 15.4544C6.01625 15.6313 5.5 15.2691 5.5 14.7491V8.3167C5.5 7.7903 5.82972 7.32034 6.32467 7.14124L13.4948 4.54669ZM18.5 8.252C18.5 7.73201 17.9837 7.36981 17.4948 7.54673L9.9948 10.2607C9.6978 10.3681 9.5 10.6501 9.5 10.9659V17.7492C9.5 18.2691 10.0163 18.6314 10.5052 18.4544L11.0203 18.268C11.0717 18.7617 11.2209 19.2482 11.4752 19.6986L11.0156 19.8649C9.5488 20.3957 8 19.3091 8 17.7492V10.9659C8 10.0185 8.5935 9.1725 9.4844 8.8502L16.9844 6.13624C18.4512 5.60545 20 6.69206 20 8.252V12.5C20 11.3106 19.4067 10.2598 18.5 9.6273V8.252ZM19 12.5C19 13.8807 17.8807 15 16.5 15C15.1193 15 14 13.8807 14 12.5C14 11.1193 15.1193 10 16.5 10C17.8807 10 19 11.1193 19 12.5ZM21 17.875C21 19.4315 19.7143 21 16.5 21C13.2857 21 12 19.4374 12 17.875V17.772C12 16.7929 12.7937 16 13.7727 16H19.2273C20.2063 16 21 16.793 21 17.772V17.875Z" fill="#212121" fill-opacity="0.25"/>
</svg>
