<svg width="20" height="23" viewBox="0 0 20 23" fill="none" xmlns="http://www.w3.org/2000/svg">
<path d="M0.285767 3.28572C0.285767 1.86557 1.43704 0.714294 2.8572 0.714294H13.1429C14.5631 0.714294 15.7143 1.86557 15.7143 3.28572V10.5087C15.3033 10.3634 14.8731 10.2588 14.4286 10.1995V3.28572C14.4286 2.57564 13.853 2.00001 13.1429 2.00001H2.8572C2.14711 2.00001 1.57148 2.57564 1.57148 3.28572V18.7143C1.57148 19.4244 2.14711 20 2.8572 20H8.13257C8.43197 20.474 8.79162 20.9062 9.20082 21.2857H2.8572C1.43704 21.2857 0.285767 20.1345 0.285767 18.7143V3.28572ZM4.14291 11.8572C4.85297 11.8572 5.42862 11.2815 5.42862 10.5714C5.42862 9.86138 4.85297 9.28572 4.14291 9.28572C3.43283 9.28572 2.8572 9.86138 2.8572 10.5714C2.8572 11.2815 3.43283 11.8572 4.14291 11.8572ZM19.1429 16.5714C19.1429 19.6485 16.6485 22.1429 13.5715 22.1429C10.4944 22.1429 8.00005 19.6485 8.00005 16.5714C8.00005 13.4944 10.4944 11 13.5715 11C16.6485 11 19.1429 13.4944 19.1429 16.5714ZM10.1429 16.1429C9.90625 16.1429 9.71434 16.3348 9.71434 16.5714C9.71434 16.8081 9.90625 17 10.1429 17H15.9654L14.1255 18.8398C13.9582 19.0072 13.9582 19.2786 14.1255 19.446C14.2929 19.6133 14.5643 19.6133 14.7317 19.446L17.3031 16.8745C17.3442 16.8334 17.3752 16.7861 17.3961 16.7355C17.4167 16.6857 17.4283 16.6312 17.4286 16.574V16.5714V16.5689C17.4279 16.46 17.3861 16.3514 17.3031 16.2684L14.7317 13.6969C14.5643 13.5296 14.2929 13.5296 14.1255 13.6969C13.9582 13.8643 13.9582 14.1357 14.1255 14.3031L15.9654 16.1429H10.1429Z" fill="#0D0D0D" fill-opacity="0.25"/>
</svg>
