<svg width="30" height="30" viewBox="0 0 30 30" fill="none" xmlns="http://www.w3.org/2000/svg">
<path d="M21.5146 2.79684C21.6784 2.30567 21.413 1.7747 20.9219 1.6109C20.4306 1.4471 19.8998 1.7125 19.7359 2.20368L18.7984 5.0149C18.6346 5.50608 18.9 6.03704 19.3911 6.20084C19.8824 6.36464 20.4133 6.09924 20.5771 5.60807L21.5146 2.79684ZM27.2254 2.77485C27.5915 3.14098 27.5915 3.73457 27.2254 4.10068L24.1004 7.22568C23.7343 7.5918 23.1408 7.5918 22.7746 7.22568C22.4085 6.85957 22.4085 6.26598 22.7746 5.89985L25.8996 2.77485C26.2658 2.40874 26.8593 2.40874 27.2254 2.77485ZM11.3454 5.39798C12.2326 3.55648 14.6934 3.18208 16.0883 4.67637L24.8461 14.0589C26.2099 15.5199 25.7261 17.8896 23.8988 18.6993L19.6239 20.5933C19.8665 21.1809 20.0004 21.825 20.0004 22.5003C20.0004 25.2618 17.7619 27.5003 15.0004 27.5003C13.006 27.5003 11.2844 26.3326 10.4818 24.6436L8.70999 25.4286C7.88164 25.7956 6.91398 25.63 6.25483 25.0084L4.4564 23.3124C3.74297 22.6395 3.54744 21.5821 3.9731 20.6988L11.3454 5.39798ZM12.1974 23.8835C12.7078 24.9155 13.7711 25.6253 15.0004 25.6253C16.7264 25.6253 18.1254 24.2261 18.1254 22.5003C18.1254 22.0954 18.0484 21.7084 17.9083 21.3533L12.1974 23.8835ZM14.7175 5.95578C14.2226 5.42553 13.3494 5.55838 13.0345 6.21184L5.66225 21.5126C5.5913 21.6599 5.6239 21.8361 5.74282 21.9483L7.54124 23.6443C7.6511 23.7479 7.8124 23.7755 7.95048 23.7143L23.1393 16.9849C23.7878 16.6976 23.9594 15.8568 23.4754 15.3383L14.7175 5.95578ZM23.75 10.3119C23.75 9.79409 24.1698 9.37435 24.6875 9.37435H27.1875C27.7053 9.37435 28.125 9.79409 28.125 10.3119C28.125 10.8296 27.7053 11.2494 27.1875 11.2494H24.6875C24.1698 11.2494 23.75 10.8296 23.75 10.3119Z" fill="white"/>
</svg>
