<svg width="21" height="21" viewBox="0 0 21 21" fill="none" xmlns="http://www.w3.org/2000/svg">
<path d="M15.5004 10.0003C18.5379 10.0003 21.0004 12.4627 21.0004 15.5003C21.0004 18.5378 18.5379 21.0003 15.5004 21.0003C12.4628 21.0003 10.0004 18.5378 10.0004 15.5003C10.0004 12.4627 12.4628 10.0003 15.5004 10.0003ZM12.8539 15.1467C12.6587 14.9514 12.3421 14.9514 12.1468 15.1467C11.9515 15.342 11.9515 15.6586 12.1468 15.8538L14.1468 17.8538C14.3421 18.0491 14.6587 18.0491 14.8539 17.8538L18.8539 13.8538C19.0492 13.6586 19.0492 13.342 18.8539 13.1467C18.6587 12.9514 18.3421 12.9514 18.1468 13.1467L14.5004 16.7931L12.8539 15.1467ZM10.0226 11.9996C9.7259 12.4629 9.4864 12.9663 9.314 13.4999L2.25278 13.5002C1.83919 13.5002 1.50391 13.8355 1.50391 14.2491V14.8267C1.50391 15.3624 1.69502 15.8805 2.04287 16.2878C3.29618 17.7555 5.26206 18.5013 8.0004 18.5013C8.5968 18.5013 9.1567 18.4659 9.6806 18.3954C9.9258 18.8903 10.2333 19.3489 10.5921 19.7618C9.7966 19.922 8.9317 20.0013 8.0004 20.0013C4.8545 20.0013 2.46849 19.0962 0.902186 17.2619C0.322416 16.583 0.00390625 15.7195 0.00390625 14.8267V14.2491C0.00390625 13.007 1.01076 12.0002 2.25278 12.0002L10.0226 11.9996ZM8.0004 0.00488281C10.7618 0.00488281 13.0004 2.24346 13.0004 5.00488C13.0004 7.76631 10.7618 10.0049 8.0004 10.0049C5.23894 10.0049 3.00036 7.76631 3.00036 5.00488C3.00036 2.24346 5.23894 0.00488281 8.0004 0.00488281ZM8.0004 1.50488C6.06737 1.50488 4.50036 3.07189 4.50036 5.00488C4.50036 6.93788 6.06737 8.5049 8.0004 8.5049C9.9334 8.5049 11.5004 6.93788 11.5004 5.00488C11.5004 3.07189 9.9334 1.50488 8.0004 1.50488Z" fill="#212121" fill-opacity="0.25"/>
</svg>
