<svg width="26" height="18" viewBox="0 0 26 18" fill="none" xmlns="http://www.w3.org/2000/svg">
<path d="M17.6875 12.125C17.1698 12.125 16.75 12.5448 16.75 13.0625C16.75 13.5802 17.1698 14 17.6875 14H20.8125C21.3302 14 21.75 13.5802 21.75 13.0625C21.75 12.5448 21.3302 12.125 20.8125 12.125H17.6875ZM0.5 4.3125C0.5 2.06884 2.31884 0.25 4.5625 0.25H21.4375C23.6811 0.25 25.5 2.06884 25.5 4.3125V13.6875C25.5 15.9311 23.6811 17.75 21.4375 17.75H4.5625C2.31884 17.75 0.5 15.9311 0.5 13.6875V4.3125ZM23.625 5.875V4.3125C23.625 3.10438 22.6456 2.125 21.4375 2.125H4.5625C3.35438 2.125 2.375 3.10438 2.375 4.3125V5.875H23.625ZM2.375 7.75V13.6875C2.375 14.8956 3.35438 15.875 4.5625 15.875H21.4375C22.6456 15.875 23.625 14.8956 23.625 13.6875V7.75H2.375Z" fill="#0D0D0D"/>
</svg>
