<svg width="26" height="24" viewBox="0 0 26 24" fill="none" xmlns="http://www.w3.org/2000/svg">
<path d="M16.4425 9.5C17.6506 9.5 18.63 10.4794 18.63 11.6875V17.6238C18.63 20.731 16.111 23.25 13.0037 23.25C9.8964 23.25 7.37741 20.731 7.37741 17.6238V11.6875C7.37741 10.4794 8.35679 9.5 9.56491 9.5H16.4425ZM6.9141 9.49883C6.47729 10.0272 6.19545 10.6885 6.13821 11.413L6.12741 11.6875V17.6238C6.12741 18.682 6.36649 19.6845 6.79359 20.58C6.38221 20.6912 5.94874 20.75 5.50155 20.75C2.73927 20.75 0.5 18.5107 0.5 15.7485V11.6875C0.5 10.5398 1.38389 9.5985 2.50809 9.50725L2.6875 9.5L6.9141 9.49883ZM19.0934 9.49883L23.3125 9.5C24.5206 9.5 25.5 10.4794 25.5 11.6875V15.75C25.5 18.5114 23.2614 20.75 20.5 20.75C20.0545 20.75 19.6225 20.6917 19.2114 20.5824C19.5871 19.7975 19.8172 18.9315 19.8689 18.018L19.88 17.6238V11.6875C19.88 10.8559 19.5848 10.0934 19.0934 9.49883ZM13 0.75C15.0711 0.75 16.75 2.42894 16.75 4.5C16.75 6.57106 15.0711 8.25 13 8.25C10.9289 8.25 9.25 6.57106 9.25 4.5C9.25 2.42894 10.9289 0.75 13 0.75ZM21.125 2C22.8509 2 24.25 3.39911 24.25 5.125C24.25 6.85089 22.8509 8.25 21.125 8.25C19.3991 8.25 18 6.85089 18 5.125C18 3.39911 19.3991 2 21.125 2ZM4.875 2C6.60089 2 8 3.39911 8 5.125C8 6.85089 6.60089 8.25 4.875 8.25C3.14911 8.25 1.75 6.85089 1.75 5.125C1.75 3.39911 3.14911 2 4.875 2Z" fill="url(#paint0_linear_688_2194)"/>
<defs>
<linearGradient id="paint0_linear_688_2194" x1="24.25" y1="0.75" x2="1.75" y2="23.25" gradientUnits="userSpaceOnUse">
<stop stop-color="#00AEFF"/>
<stop offset="1" stop-color="#000BEB"/>
</linearGradient>
</defs>
</svg>
