<svg width="28" height="28" viewBox="0 0 28 28" fill="none" xmlns="http://www.w3.org/2000/svg">
<path d="M10.7915 2.33337C11.2747 2.33337 11.6665 2.72513 11.6665 3.20837V6.12504C11.6665 6.60829 11.2747 7.00004 10.7915 7.00004C10.3083 7.00004 9.9165 6.60829 9.9165 6.12504V3.20837C9.9165 2.72513 10.3083 2.33337 10.7915 2.33337ZM5.21443 4.63149C5.55612 4.28977 6.11015 4.28975 6.45187 4.63144L8.49353 6.67297C8.83526 7.01466 8.83527 7.56869 8.49358 7.9104C8.15189 8.25213 7.59786 8.25214 7.25614 7.91045L5.21448 5.86892C4.87275 5.52723 4.87274 4.9732 5.21443 4.63149ZM16.3685 4.63146C16.7102 4.97318 16.7102 5.52719 16.3685 5.8689L14.3269 7.91057C13.9851 8.25228 13.4312 8.25228 13.0895 7.91057C12.7478 7.56886 12.7478 7.01485 13.0895 6.67313L15.1312 4.63146C15.4729 4.28976 16.0268 4.28976 16.3685 4.63146ZM2.9165 10.2084C2.9165 9.72513 3.30826 9.33337 3.7915 9.33337H6.70817C7.19142 9.33337 7.58317 9.72513 7.58317 10.2084C7.58317 10.6916 7.19142 11.0834 6.70817 11.0834H3.7915C3.30826 11.0834 2.9165 10.6916 2.9165 10.2084ZM12.4567 9.89993C11.4586 9.04436 9.9165 9.7536 9.9165 11.0683V24.221C9.9165 25.6335 11.6602 26.2997 12.6021 25.2471L15.6524 21.8378C15.9736 21.4788 16.4266 21.2653 16.908 21.2461L21.388 21.0669C22.7853 21.011 23.3896 19.271 22.328 18.3609L12.4567 9.89993ZM11.6665 23.6682V11.5275L20.7809 19.3398L16.838 19.4975C15.8835 19.5356 14.9852 19.959 14.3482 20.6709L11.6665 23.6682Z" fill="#0D0D0D"/>
</svg>
