<svg width="36" height="36" viewBox="0 0 36 36" fill="none" xmlns="http://www.w3.org/2000/svg">
<path d="M18.4997 3.75124C18.1973 3.54972 17.8035 3.54972 17.5012 3.75124C14.0124 6.07708 10.2394 7.52824 6.17311 8.10915C5.72972 8.17248 5.40039 8.5522 5.40039 9.0001V17.1001C5.40039 24.1044 9.55297 29.2154 17.6773 32.3402C17.8853 32.4201 18.1156 32.4201 18.3235 32.3402C26.4478 29.2154 30.6004 24.1044 30.6004 17.1001V9.0001C30.6004 8.5522 30.271 8.17248 29.8277 8.10915C25.7614 7.52824 21.9883 6.07708 18.4997 3.75124ZM18.0004 17.0992C16.0122 17.0992 14.4004 15.4874 14.4004 13.4992C14.4004 11.511 16.0122 9.89922 18.0004 9.89922C19.9887 9.89922 21.6004 11.511 21.6004 13.4992C21.6004 15.4874 19.9887 17.0992 18.0004 17.0992ZM18.0004 26.0992C13.5004 26.0992 11.7004 23.849 11.7004 21.5992C11.7004 20.1081 12.9092 18.8992 14.4004 18.8992H21.6004C23.0915 18.8992 24.3004 20.1081 24.3004 21.5992C24.3004 23.8406 22.5004 26.0992 18.0004 26.0992Z" fill="url(#paint0_linear_682_1658)"/>
<defs>
<linearGradient id="paint0_linear_682_1658" x1="30.6004" y1="5.4001" x2="5.40039" y2="30.6001" gradientUnits="userSpaceOnUse">
<stop stop-color="#737373"/>
<stop offset="1" stop-color="#0D0D0D"/>
</linearGradient>
</defs>
</svg>
