<svg width="38" height="36" viewBox="0 0 38 36" fill="none" xmlns="http://www.w3.org/2000/svg">
<path d="M25.1608 10.703L25.2771 10.9387L25.5372 10.9765L35.2271 12.3846C36.852 12.6207 37.5008 14.6176 36.3251 15.7637L29.3133 22.5983L29.125 22.7818L29.1695 23.0409L30.8248 32.6918C31.1023 34.3102 29.4037 35.5443 27.9503 34.7802L19.2834 30.2237L19.0507 30.1013L18.818 30.2237L10.1511 34.7802L10.3837 35.2227L10.1511 34.7802C8.69772 35.5443 6.99909 34.3101 7.27666 32.6918L8.93191 23.0409L8.97635 22.7818L8.78811 22.5983L1.77638 15.7637L1.42738 16.1217L1.77638 15.7637C0.600598 14.6176 1.2494 12.6207 2.87432 12.3846L12.5643 10.9765L12.8244 10.9387L12.9408 10.703L17.2742 1.92243C18.0009 0.450014 20.1005 0.450007 20.8272 1.92243L25.1608 10.703Z" fill="#0D0D0D" stroke="black"/>
</svg>
