<svg width="22" height="22" viewBox="0 0 22 22" fill="none" xmlns="http://www.w3.org/2000/svg">
<path d="M9.88898 2.84364C10.3429 1.92387 11.6545 1.92386 12.1084 2.84364L14.2699 7.22321L19.103 7.92551C20.1181 8.073 20.5233 9.32039 19.7889 10.0363L16.2915 13.4453L17.1172 18.259C17.2905 19.2699 16.2295 20.0408 15.3216 19.5635L10.9987 17.2908L6.67581 19.5635C5.76795 20.0408 4.70687 19.2699 4.88026 18.259L5.70586 13.4453L2.20856 10.0363C1.47408 9.32039 1.87938 8.073 2.8944 7.92551L7.72755 7.22321L9.88898 2.84364ZM10.9987 3.70199L8.92857 7.89656C8.74832 8.26181 8.39987 8.51495 7.99681 8.57353L3.36783 9.24614L6.71739 12.5112C7.00905 12.7955 7.14214 13.205 7.07329 13.6065L6.28257 18.2168L10.4228 16.0401C10.7834 15.8505 11.214 15.8505 11.5745 16.0401L15.7149 18.2168L14.9241 13.6065C14.8553 13.205 14.9884 12.7955 15.28 12.5112L18.6296 9.24614L14.0006 8.57353C13.5975 8.51495 13.2491 8.26181 13.0689 7.89656L10.9987 3.70199Z" fill="#212121" fill-opacity="0.25"/>
</svg>
