<svg width="16" height="21" viewBox="0 0 16 21" fill="none" xmlns="http://www.w3.org/2000/svg">
<path d="M6.155 13.7734C6.152 13.7662 6.1491 13.7591 6.1461 13.7519C6.0104 13.7147 5.87622 13.6735 5.74386 13.6285C5.74069 13.6274 5.73751 13.6263 5.73433 13.6252C5.26222 13.4638 4.81284 13.2533 4.39229 12.9999C2.35953 11.775 0.999996 9.5463 0.999996 7C0.999996 3.13401 4.13401 0 8 0C11.613 0 14.5867 2.73729 14.9604 6.25118C15.0042 6.66307 14.6642 7 14.25 7C13.8358 7 13.5054 6.66235 13.4496 6.25192C13.0846 3.56822 10.7838 1.5 8 1.5C4.96243 1.5 2.5 3.96243 2.5 7C2.5 9.3965 4.03274 11.435 6.1714 12.1887C6.4826 11.4884 7.1842 11 8 11C9.1045 11 10 11.8954 10 12.9999C10 13.5972 9.7382 14.1335 9.323 14.4999C8.9704 14.8112 8.5073 15 8 15C7.4759 15 6.9988 14.7984 6.6422 14.4685C6.4338 14.2757 6.2665 14.0391 6.155 13.7734ZM3.99723 14.4999C3.25739 14.1043 2.58287 13.6024 1.99411 13.0146C0.873916 13.1429 0.00390625 14.0943 0.00390625 15.2488V15.8265C0.00390625 16.7193 0.322416 17.5827 0.902186 18.2617C2.46849 20.0959 4.8545 21.0011 8.0004 21.0011C11.1457 21.0011 13.5329 20.0962 15.1023 18.2627C15.6838 17.5833 16.0034 16.7185 16.0034 15.8242V15.2488C16.0034 14.0068 14.9966 12.9999 13.7545 12.9999H11.5C11.5 13.5367 11.3792 14.0453 11.1632 14.4999H13.7545C14.1681 14.4999 14.5034 14.8352 14.5034 15.2488V15.8242C14.5034 16.3608 14.3117 16.8797 13.9627 17.2873C12.7063 18.7552 10.7387 19.5011 8.0004 19.5011C5.26206 19.5011 3.29618 18.7553 2.04287 17.2876C1.69502 16.8802 1.50391 16.3621 1.50391 15.8265V15.2488C1.50391 14.8352 1.83919 14.4999 2.25278 14.4999H3.99723ZM4 7C4 4.79086 5.79086 3 8 3C8.9776 3 9.8738 3.35102 10.5689 3.93383C11.4438 4.66758 12 5.76883 12 7C12 8.37806 11.3031 9.5934 10.2426 10.3127C9.6352 9.8053 8.8533 9.5 8 9.5C9.3807 9.5 10.5 8.38071 10.5 7C10.5 5.61929 9.3807 4.5 8 4.5C6.6193 4.5 5.5 5.61929 5.5 7C5.5 8.38071 6.6193 9.5 8 9.5C7.1458 9.5 6.3643 9.8059 5.75762 10.3128C5.16608 9.9117 4.68766 9.3562 4.38018 8.70425C4.13627 8.18695 4 7.60915 4 7Z" fill="#0D0D0D" fill-opacity="0.25"/>
</svg>
