<svg width="19" height="21" viewBox="0 0 19 21" fill="none" xmlns="http://www.w3.org/2000/svg">
<path d="M7.31 13.498C7.48137 12.9696 7.71999 12.4655 8.02 11.998H2.25C1.65326 11.998 1.08097 12.2351 0.65901 12.657C0.237053 13.079 0 13.6513 0 14.248V14.825C0 15.718 0.319 16.582 0.898 17.261C2.311 18.915 4.389 19.813 7.09 19.974L7.541 18.494C5.039 18.414 3.222 17.672 2.039 16.287C1.69094 15.8794 1.4998 15.361 1.5 14.825V14.247C1.5 13.834 1.836 13.498 2.25 13.498H7.31ZM7.999 0C9.32535 0 10.5974 0.526889 11.5352 1.46476C12.4731 2.40263 13 3.67465 13 5.001C13 6.32735 12.4731 7.59937 11.5352 8.53724C10.5974 9.47511 9.32535 10.002 7.999 10.002C6.67265 10.002 5.40063 9.47511 4.46276 8.53724C3.52489 7.59937 2.998 6.32735 2.998 5.001C2.998 3.67465 3.52489 2.40263 4.46276 1.46476C5.40063 0.526889 6.67265 0 7.999 0ZM7.999 1.5C7.53924 1.5 7.08399 1.59056 6.65923 1.7665C6.23446 1.94244 5.84852 2.20032 5.52342 2.52542C5.19832 2.85052 4.94044 3.23646 4.7645 3.66123C4.58856 4.08599 4.498 4.54124 4.498 5.001C4.498 5.46076 4.58856 5.91601 4.7645 6.34077C4.94044 6.76554 5.19832 7.15148 5.52342 7.47658C5.84852 7.80168 6.23446 8.05956 6.65923 8.2355C7.08399 8.41144 7.53924 8.502 7.999 8.502C8.92752 8.502 9.81802 8.13315 10.4746 7.47658C11.1311 6.82002 11.5 5.92952 11.5 5.001C11.5 4.07248 11.1311 3.18198 10.4746 2.52542C9.81802 1.86885 8.92752 1.5 7.999 1.5ZM19 15.5C19.0003 16.4576 18.7506 17.3988 18.2756 18.2303C17.8006 19.0619 17.1168 19.755 16.2917 20.2411C15.4666 20.7273 14.529 20.9897 13.5714 21.0023C12.6138 21.0149 11.6696 20.7773 10.832 20.313L8.645 20.978C8.55829 21.0044 8.46603 21.0068 8.37809 20.9848C8.29015 20.9628 8.20984 20.9173 8.14575 20.8533C8.08165 20.7892 8.03619 20.7088 8.01421 20.6209C7.99224 20.533 7.99459 20.4407 8.021 20.354L8.687 18.167C8.28019 17.4326 8.04686 16.6149 8.00488 15.7764C7.96291 14.9379 8.1134 14.101 8.44484 13.3296C8.77627 12.5583 9.27986 11.873 9.91702 11.3264C10.5542 10.7797 11.308 10.3862 12.1208 10.1758C12.9335 9.96547 13.7836 9.94395 14.606 10.1129C15.4283 10.2818 16.2011 10.6367 16.8651 11.1505C17.5291 11.6642 18.0667 12.3231 18.4368 13.0766C18.8068 13.8302 18.9995 14.6585 19 15.498V15.5ZM11.498 14C11.3654 14 11.2382 14.0527 11.1444 14.1464C11.0507 14.2402 10.998 14.3674 10.998 14.5C10.998 14.6326 11.0507 14.7598 11.1444 14.8536C11.2382 14.9473 11.3654 15 11.498 15H15.5C15.6326 15 15.7598 14.9473 15.8536 14.8536C15.9473 14.7598 16 14.6326 16 14.5C16 14.3674 15.9473 14.2402 15.8536 14.1464C15.7598 14.0527 15.6326 14 15.5 14H11.5H11.498ZM10.998 16.5C10.998 16.6326 11.0507 16.7598 11.1444 16.8536C11.2382 16.9473 11.3654 17 11.498 17H13.498C13.6306 17 13.7578 16.9473 13.8516 16.8536C13.9453 16.7598 13.998 16.6326 13.998 16.5C13.998 16.3674 13.9453 16.2402 13.8516 16.1464C13.7578 16.0527 13.6306 16 13.498 16H11.498C11.3654 16 11.2382 16.0527 11.1444 16.1464C11.0507 16.2402 10.998 16.3674 10.998 16.5Z" fill="#0077FF"/>
</svg>
