<svg width="22" height="8" viewBox="0 0 22 8" fill="none" xmlns="http://www.w3.org/2000/svg">
<path d="M15.5933 1.15277C15.1229 0.981362 14.6256 0.895349 14.125 0.89878C12.5059 0.89878 11.3625 1.71438 11.3544 2.88515C11.3443 3.74527 12.1669 4.22997 12.7893 4.51735C13.4278 4.81283 13.6413 4.99902 13.6393 5.26313C13.6352 5.66485 13.1293 5.84699 12.6587 5.84699C12.0121 5.84699 11.659 5.75693 11.1156 5.53128L10.9142 5.43717L10.6845 6.78503C11.0781 6.94896 11.7875 7.08961 12.5201 7.10176C14.2414 7.10176 15.3666 6.29122 15.3797 5.04557C15.3939 4.35848 14.9487 3.83938 14.0116 3.41033C13.4419 3.13205 13.0888 2.94586 13.0888 2.66354C13.0888 2.4136 13.3914 2.14646 14.0238 2.14646C14.4447 2.13628 14.863 2.21525 15.2512 2.37819L15.403 2.44598L15.6327 1.14366L15.5933 1.15277ZM19.7947 1.00807H18.5298C18.1362 1.00807 17.8397 1.11634 17.6677 1.50694L15.235 7.01777H16.9563L17.3003 6.11414L19.4011 6.11616C19.4506 6.32765 19.6024 7.01777 19.6024 7.01777H21.1203L19.7947 1.00807ZM9.026 0.95747H10.6663L9.64022 6.97021H8.00195L9.026 0.955447V0.95747ZM4.86201 4.27146L5.03201 5.10628L6.63486 1.00807H8.3723L5.79094 7.00967H4.05754L2.64088 1.92789C2.61793 1.84409 2.56405 1.77213 2.4901 1.72652C1.9795 1.46275 1.43848 1.26259 0.87915 1.13051L0.901412 1.00402H3.54147C3.89969 1.01818 4.18808 1.13051 4.28421 1.51301L4.861 4.27449V4.27146H4.86201ZM17.7709 4.88467L18.4246 3.20289C18.4165 3.2211 18.5592 2.8558 18.6421 2.63015L18.7544 3.14926L19.1339 4.88366H17.7699V4.88467H17.7709Z" fill="white"/>
</svg>
