<svg width="28" height="28" viewBox="0 0 28 28" fill="none" xmlns="http://www.w3.org/2000/svg">
<rect width="28" height="28" rx="9" fill="url(#paint0_linear_842_2885)"/>
<g clip-path="url(#clip0_842_2885)">
<path d="M19.346 16.9755C18.0715 16.9983 16.6249 17.1318 15.2883 17.2951C15.4379 16.7729 15.5869 16.2572 15.5869 16.2572C15.5869 16.2572 15.7399 16.5769 16.1714 16.5446C16.7843 16.4985 17.5302 15.9188 17.8912 14.8566C18.275 13.7283 18.2406 12.4467 17.4575 12.3392C16.8247 12.2524 16.5227 12.7957 16.4792 12.9038C16.4792 12.9038 16.6137 12.4103 16.2117 12.4965C15.8265 12.579 15.756 12.7457 15.6609 13.0439C15.644 13.0963 15.3198 14.2687 14.9799 15.5043C14.9749 15.5123 14.9706 15.5216 14.9675 15.532C14.8836 15.8113 14.7175 15.905 14.5974 15.9123C14.2092 15.9367 15.0438 13.4478 15.107 13.2589C15.1905 13.0099 15.2403 12.8211 14.9574 12.7172C14.7665 12.6471 14.5047 12.6725 14.4281 12.8715C14.3958 12.9551 14.3724 13.0166 14.3724 13.0166C14.3724 13.0166 14.1543 12.7018 13.6722 12.7447C13.1896 12.7874 12.5807 13.3579 12.1776 14.3586C11.7745 15.3592 11.5995 16.7946 12.5555 16.9377C13.0406 17.0103 13.448 16.7406 13.6612 16.2964C13.6612 16.2964 13.624 16.5938 13.9435 16.7396C14.0691 16.7971 14.3813 16.7747 14.6752 16.6133C14.5978 16.8952 14.525 17.1627 14.46 17.401C12.3959 17.6782 10.7714 17.988 10.7714 17.988C10.7718 17.9866 11.9028 14.2704 12.1577 13.4524C12.3709 12.7679 11.9688 12.9168 11.6717 13.0006C11.355 13.0898 11.205 13.3492 11.0464 13.8199C10.3535 15.8761 9.80799 16.5164 9.41265 16.3784C9.04983 16.2517 10.1909 14.0681 9.91714 13.7799C9.67993 13.5299 9.19089 13.5433 9.09759 13.6907C9.0043 13.838 9.14292 13.9726 9.08357 14.1811C9.02401 14.3897 8.56709 15.5184 8.51891 15.7712C8.47074 16.0239 8.07418 17.4247 9.12341 17.3644C9.74355 17.3286 10.1682 16.8729 10.2133 16.7463C10.0196 17.2906 9.74274 18.1691 9.74274 18.1691C9.74274 18.1691 8.47338 18.4774 7.46156 19.5063C6.65827 20.323 6.09016 22.0822 7.29001 22.3625C9.15491 22.7983 10.0367 20.0324 10.4889 18.9921C12.001 18.665 13.154 18.4477 14.2206 18.2862C14.2047 18.3467 14.1941 18.3878 14.1903 18.4049C14.0933 18.8378 14.1149 19.0114 14.463 18.9695C14.8383 18.9244 14.8854 18.7374 15.0082 18.2845C15.0165 18.2534 15.0271 18.215 15.0395 18.1705C16.3034 18.0048 17.5441 17.9008 19.2516 17.7626C19.7824 17.7195 19.7765 17.6333 19.8283 17.3256C19.8868 16.9764 19.4718 16.9737 19.3457 16.9757L19.346 16.9755ZM16.0907 14.5889C16.3458 13.7787 16.5804 13.4541 16.8009 13.3626C17.3268 13.1437 17.4266 13.785 17.0207 14.7582C16.5509 15.8846 16.0023 15.8588 15.7922 15.6367C15.7918 15.6367 15.821 15.4442 16.0907 14.5889ZM13.7425 15.0775C13.5169 15.6064 13.3057 15.9788 13.0152 15.9806C12.5987 15.9836 12.6093 15.3751 12.9059 14.6096C13.1553 13.9661 13.6098 13.5608 13.8553 13.5146C14.1004 13.4689 14.386 13.5687 13.7425 15.0773V15.0775ZM8.23211 21.232C7.24061 22.0918 7.49062 20.9143 7.85934 20.4057C8.55916 19.4401 9.42342 19.1959 9.42342 19.1959C8.98418 20.444 8.43537 21.0558 8.23211 21.2322V21.232Z" fill="white"/>
<path d="M20.6645 13.862C21.0391 13.4407 21.2098 12.5429 20.5815 12.2124C19.8215 11.8128 18.829 12.423 18.4195 13.7377C18.0552 14.9068 17.919 16.3445 19.1547 16.2914C19.7634 16.2654 20.2884 15.8396 20.4787 15.5235C20.5708 15.37 20.6078 15.1286 20.5915 15.0212C20.5464 14.7202 20.3569 14.6765 20.0354 15.0716C19.9559 15.1588 19.3217 15.7068 19.0116 15.3814C18.7874 15.1462 18.9758 14.6844 18.9847 14.684C19.3904 14.6554 20.1006 14.4958 20.6643 13.8616L20.6645 13.862ZM19.7551 12.8413C20.0962 12.5315 20.4226 12.9021 20.0281 13.4354C19.6299 13.9734 19.1636 13.9596 19.1597 13.9767C19.2075 13.7661 19.3829 13.1795 19.7551 12.8413Z" fill="white"/>
<path d="M13.7231 4.94141C11.9773 4.94141 10.562 6.3567 10.562 8.1025C10.562 8.93566 10.885 9.69321 11.4116 10.2579L11.3372 11.5976C11.3305 11.7193 11.4665 11.7957 11.5669 11.7266L12.5619 11.0425C12.9215 11.1845 13.3129 11.2636 13.7231 11.2636C15.4689 11.2636 16.8842 9.8483 16.8842 8.1025C16.8842 6.3567 15.4691 4.94141 13.7231 4.94141ZM13.9532 9.35905C13.8729 9.49605 13.7617 9.60195 13.6229 9.6737C13.4859 9.74443 13.3198 9.78021 13.1294 9.78021C12.8312 9.78021 12.5891 9.69077 12.41 9.51475C12.2308 9.33873 12.1367 9.09868 12.13 8.80111C12.1296 8.79968 12.1247 8.73972 12.169 8.68931C12.2033 8.65008 12.255 8.62935 12.3224 8.62752C12.4015 8.62651 12.4635 8.64378 12.5019 8.682C12.5316 8.71167 12.5416 8.74765 12.5412 8.77163C12.555 8.90192 12.5865 9.00965 12.6344 9.08364C12.6818 9.15681 12.7513 9.21677 12.8408 9.2619C12.9314 9.30763 13.0355 9.3308 13.1503 9.3308C13.3137 9.3308 13.4408 9.29279 13.528 9.21799C13.6133 9.14461 13.655 9.05152 13.655 8.93343C13.655 8.86473 13.6404 8.8072 13.6101 8.7572C13.5802 8.70781 13.5337 8.66634 13.4715 8.63403C13.4026 8.59805 13.2477 8.5452 13.0113 8.47731C12.7875 8.41268 12.631 8.34865 12.5332 8.28137C12.434 8.21287 12.3556 8.12486 12.3005 8.01957C12.2452 7.91428 12.2172 7.79436 12.2172 7.66265C12.2172 7.42666 12.2972 7.23072 12.4552 7.0799C12.6123 6.9299 12.8251 6.85388 13.0875 6.85388C13.2664 6.85388 13.4259 6.88904 13.5617 6.95856C13.6993 7.02909 13.8079 7.13173 13.8841 7.26365C13.9593 7.39414 13.9999 7.54862 14.0054 7.72342C14.0058 7.7283 14.0087 7.79253 13.9615 7.84457C13.9382 7.87038 13.894 7.90148 13.817 7.90392C13.7375 7.90697 13.6762 7.88827 13.6351 7.84944C13.592 7.809 13.5885 7.76204 13.5883 7.7529C13.5749 7.59781 13.5272 7.48012 13.4467 7.40654C13.366 7.33316 13.2485 7.29576 13.0971 7.29576C12.9456 7.29576 12.8239 7.32849 12.7462 7.39292C12.6708 7.45512 12.6342 7.53378 12.6342 7.63318C12.6342 7.72505 12.6599 7.79294 12.7125 7.84111C12.7523 7.8777 12.8572 7.93664 13.1304 8.00982C13.3615 8.07201 13.5205 8.12486 13.6162 8.17161H13.6166C13.7656 8.2458 13.8802 8.34519 13.9573 8.46715C14.0345 8.58931 14.0737 8.73627 14.0737 8.90375C14.0737 9.07124 14.0331 9.22226 13.9528 9.35885L13.9532 9.35905ZM15.835 7.32402L14.6126 9.54748C14.5737 9.61821 14.4994 9.66211 14.4185 9.66211C14.3815 9.66211 14.3447 9.65276 14.312 9.63467C14.205 9.57593 14.1658 9.44117 14.2245 9.33426L15.447 7.1108C15.5057 7.00429 15.6403 6.96486 15.7476 7.0234C15.8545 7.08214 15.8935 7.2169 15.835 7.32381V7.32402Z" fill="#00D0B4"/>
</g>
<defs>
<linearGradient id="paint0_linear_842_2885" x1="28" y1="3.33786e-06" x2="3.33786e-06" y2="28" gradientUnits="userSpaceOnUse">
<stop stop-color="#7C2EA0"/>
<stop offset="1" stop-color="#591B7E"/>
</linearGradient>
<clipPath id="clip0_842_2885">
<rect width="14.3995" height="17.4671" fill="white" transform="translate(6.60059 4.94141)"/>
</clipPath>
</defs>
</svg>
